<svg width="328" height="328" xmlns="http://www.w3.org/2000/svg">
  <g>
    <g stroke="null" transform="rotate(-180 164, 164)">
      <path stroke="null"
            fill="#ff8d98"
            d="m326.657666,266.489353c-0.831824,2.323013 -3.030428,3.88135 -5.491032,3.88135l-145.585058,0c-1.469389,0 -2.881995,-0.554764 -3.958882,-1.55234l-48.822563,-45.241769l-60.721126,60.928102c-0.065749,0.061974 -0.151422,0.099958 -0.216175,0.162931c-0.210197,0.193918 -0.450281,0.35185 -0.686379,0.51778c-0.25403,0.167929 -0.493117,0.330859 -0.761094,0.453807c-0.079696,0.036984 -0.139467,0.100957 -0.222152,0.134943c-0.168357,0.07097 -0.341695,0.076967 -0.513041,0.127946c-0.296866,0.09396 -0.583771,0.182922 -0.891595,0.222905c-0.278935,0.042982 -0.5499,0.042982 -0.828835,0.042982s-0.546912,0 -0.828835,-0.042982c-0.307825,-0.04598 -0.600706,-0.134943 -0.896576,-0.228903c-0.16238,-0.051978 -0.338707,-0.057975 -0.501087,-0.128945c-0.082684,-0.033986 -0.139467,-0.091961 -0.216175,-0.134943c-0.272958,-0.127946 -0.523999,-0.296874 -0.77504,-0.468801c-0.23311,-0.156933 -0.467216,-0.313867 -0.677413,-0.502786c-0.07073,-0.062973 -0.150426,-0.099958 -0.222152,-0.162931l-51.52325,-51.697025c-1.668628,-1.674288 -2.170711,-4.189219 -1.265169,-6.378289c0.902553,-2.18907 3.033416,-3.612464 5.388423,-3.612464l45.689527,0l0,-67.306391c0,-0.016993 0.005977,-0.027988 0.005977,-0.039983s-0.005977,-0.02299 -0.005977,-0.033986c0,-0.04598 0.02889,-0.091961 0.034867,-0.143939c0.030882,-0.690706 0.193262,-1.343429 0.444303,-1.954169c0.076707,-0.177924 0.156403,-0.348852 0.245064,-0.520779c0.298859,-0.559762 0.666455,-1.074543 1.124705,-1.508359c0.059772,-0.057975 0.082684,-0.137941 0.142456,-0.194917l63.185714,-55.601366c0.048814,-0.038983 0.111574,-0.056976 0.165369,-0.102956c0.272958,-0.896619 0.695345,-1.748257 1.375746,-2.434965l49.608561,-49.782839c1.116736,-1.114526 2.612026,-1.715271 4.128236,-1.715271c0.752128,0 1.509237,0.143939 2.232475,0.445811c2.180673,0.902616 3.599256,3.040708 3.599256,5.406702l0,92.134837l146.455733,120.530767c1.897753,1.568333 2.615014,4.171227 1.783191,6.501237zm-262.870184,-96.850832l0,59.030908l0,37.568031l48.139172,-48.302468l-48.139172,-48.296471zm-43.274748,64.88342l31.608298,31.715519l0,-31.715519l-31.608298,0zm146.225612,-173.068435l-35.265333,35.390957l35.265333,31.292699l0,-66.683655zm-45.472356,46.125394l-54.596514,48.044578l111.196377,103.040201l126.987078,0l-183.586941,-151.084779z"/>
    </g>
  </g>
</svg>
